<?xml version="1.0" encoding="UTF-8"?>
<svg width="22px" height="22px" viewBox="0 0 22 22" version="1.1" xmlns="http://www.w3.org/2000/svg" xmlns:xlink="http://www.w3.org/1999/xlink">
    <!-- Generator: Sketch 56.3 (81716) - https://sketch.com -->
    <title>Group</title>
    <desc>Created with Sketch.</desc>
    <defs>
        <polygon id="path-1" points="0.00123046875 0.000825147348 21 0.000825147348 21 20.9954617 0.00123046875 20.9954617"></polygon>
    </defs>
    <g id="Page-1" stroke="none" stroke-width="1" fill="none" fill-rule="evenodd">
        <g id="Desktop-HD" transform="translate(-897.000000, -477.000000)">
            <g id="Group" transform="translate(897.000000, 477.000000)">
                <rect id="Rectangle" fill="#1877F2" x="0" y="0" width="22" height="22" rx="3"></rect>
                <g id="f_logo_RGB-Blue_1024" transform="translate(0.000000, 1.000000)">
                    <g id="Group-3" transform="translate(0.500000, 0.000000)">
                        <mask id="mask-2" fill="white">
                            <use xlink:href="#path-1"></use>
                        </mask>
                        <g id="Clip-2"></g>
                        <path d="M21,10.5618861 C21,4.72871316 16.2989941,0 10.5,0 C4.70100586,0 0,4.72871316 0,10.5618861 C0,15.8336287 3.83969824,20.2031139 8.859375,20.9954617 L8.859375,13.6149312 L6.19335938,13.6149312 L6.19335938,10.5618861 L8.859375,10.5618861 L8.859375,8.23497053 C8.859375,5.58789784 10.4269512,4.12573674 12.8253809,4.12573674 C13.974167,4.12573674 15.1757812,4.33202358 15.1757812,4.33202358 L15.1757812,6.93123772 L13.8517559,6.93123772 C12.5473975,6.93123772 12.140625,7.74538998 12.140625,8.58064538 L12.140625,10.5618861 L15.0527344,10.5618861 L14.587207,13.6149312 L12.140625,13.6149312 L12.140625,20.9954617 C17.1603018,20.2031139 21,15.8336287 21,10.5618861" id="Fill-1" fill="#1877F2" mask="url(#mask-2)"></path>
                    </g>
                    <path d="M15.3767123,9.81553398 L12.4589041,9.81553398 L12.4589041,7.71750728 C12.4589041,6.83301699 12.8664726,5.97087379 14.1733836,5.97087379 L15.5,5.97087379 L15.5,3.2184466 C15.5,3.2184466 14.2960342,3 13.145,3 C10.7418767,3 9.17123288,4.54834951 9.17123288,7.35145631 L9.17123288,9.81553398 L6.5,9.81553398 L6.5,13.0485437 L9.17123288,13.0485437 L9.17123288,20.9954617 C9.89430137,20.9984872 10.4422466,21 10.8150685,21 C11.1878904,21 11.7358356,20.9984872 12.4589041,20.9954617 L12.4589041,13.0485437 L14.910274,13.0485437 L15.3767123,9.81553398 Z" id="Fill-4" fill="#FFFFFF"></path>
                </g>
            </g>
        </g>
    </g>
</svg>