<?xml version="1.0" encoding="UTF-8"?>
<svg width="23px" height="24px" viewBox="0 0 23 24" version="1.1" xmlns="http://www.w3.org/2000/svg" xmlns:xlink="http://www.w3.org/1999/xlink">
    <!-- Generator: Sketch 56.3 (81716) - https://sketch.com -->
    <title>Group 4</title>
    <desc>Created with Sketch.</desc>
    <defs>
        <rect id="path-1" x="0" y="0" width="23" height="24" rx="3"></rect>
    </defs>
    <g id="Page-1" stroke="none" stroke-width="1" fill="none" fill-rule="evenodd">
        <g id="Desktop-HD" transform="translate(-974.000000, -213.000000)">
            <g id="Group-4" transform="translate(974.000000, 213.000000)">
                <mask id="mask-2" fill="white">
                    <use xlink:href="#path-1"></use>
                </mask>
                <use id="Mask" fill="#D8D8D8" xlink:href="#path-1"></use>
                <g mask="url(#mask-2)">
                    <g transform="translate(-1.000000, 0.000000)">
                        <polygon id="Fill-1" fill="#1DA1F2" points="0.5 24 25.5 24 25.5 0 0.5 0"></polygon>
                        <path d="M10.2172,18 C15.8776,18 18.97354,13.3828388 18.97354,9.37885739 C18.97354,9.24771489 18.97354,9.11716312 18.9646,8.98720208 C19.56688,8.55827158 20.08678,8.02720353 20.5,7.41880866 C19.93834,7.66384428 19.34248,7.82458246 18.7324,7.89552937 C19.37482,7.51687017 19.85572,6.92129418 20.0854,6.21962272 C19.48126,6.57258508 18.82042,6.82128325 18.13114,6.95508405 C16.9657,5.73492713 15.01618,5.67603115 13.77688,6.82352803 C12.97762,7.56353799 12.6385,8.66631647 12.8866,9.71852828 C10.41214,9.59642398 8.1067,8.44567807 6.544,6.55279556 C5.72716,7.93729412 6.1444,9.70842676 7.4968,10.5975375 C7.00702,10.5832418 6.52798,10.4531626 6.1,10.2182875 L6.1,10.2566851 C6.10042,11.6990163 7.13302,12.9412666 8.569,13.2268855 C8.11594,13.3485763 7.64056,13.3663574 7.1794,13.27887 C7.58254,14.5132044 8.73796,15.3587191 10.0546,15.3830573 C8.96482,16.2263272 7.6186,16.6840854 6.2326,16.6826677 C5.98774,16.6821951 5.74312,16.667604 5.5,16.6389535 C6.90736,17.5281824 8.54494,17.9998228 10.2172,17.9976371" id="Fill-2" fill="#FFFFFF"></path>
                    </g>
                </g>
            </g>
        </g>
    </g>
</svg>